<svg xmlns="http://www.w3.org/2000/svg" viewBox="0 0 142.7 117.04"><defs><style>.cls-1{fill:#e52629;}</style></defs><g id="Calque_2" data-name="Calque 2"><g id="Calque_1-2" data-name="Calque 1"><path d="M11.61,73.31a4.29,4.29,0,0,1,1.72,2.83,1,1,0,0,1-.24.89,1.2,1.2,0,0,1-.91.37H10.4q-.48,0-.81-.63A1.78,1.78,0,0,0,7.88,76H5.55a1.9,1.9,0,0,0-1.37.47,1.82,1.82,0,0,0-.48,1.38V96.39a1.86,1.86,0,0,0,.48,1.37,1.86,1.86,0,0,0,1.37.48H7.88a1.88,1.88,0,0,0,1.37-.46,1.85,1.85,0,0,0,.49-1.39V85.73H9.4a1.1,1.1,0,0,1-.81-.33,1.12,1.12,0,0,1-.33-.82v-1.4a1.11,1.11,0,0,1,.33-.84A1.12,1.12,0,0,1,9.4,82h2.89a1.11,1.11,0,0,1,.83.31,1.14,1.14,0,0,1,.32.84V96.39A5.6,5.6,0,0,1,12,100.52,5.58,5.58,0,0,1,7.88,102H5.55a5.56,5.56,0,0,1-4.12-1.43A5.56,5.56,0,0,1,0,96.39V77.88a5.53,5.53,0,0,1,1.43-4.12,5.56,5.56,0,0,1,4.12-1.43H7.88A6.39,6.39,0,0,1,11.61,73.31Z"/><path d="M30.52,73.72A5.6,5.6,0,0,1,32,77.85V98.21h.33a1.11,1.11,0,0,1,.83.31,1.13,1.13,0,0,1,.32.83v1.41a1.13,1.13,0,0,1-.32.81,1.06,1.06,0,0,1-.83.34H27.91a1.07,1.07,0,0,1-.81-.34,1.11,1.11,0,0,1-.34-.81V99.35a1.11,1.11,0,0,1,.34-.83,1.12,1.12,0,0,1,.81-.31h.33v-6h-6v6h.33a1.07,1.07,0,0,1,1.15,1.14v1.41a1.12,1.12,0,0,1-.31.81,1.08,1.08,0,0,1-.84.34H18.18a1.08,1.08,0,0,1-.82-.34,1.1,1.1,0,0,1-.33-.81V99.35a1.1,1.1,0,0,1,.33-.83,1.13,1.13,0,0,1,.82-.31h.33V77.85a5.6,5.6,0,0,1,1.42-4.13,5.6,5.6,0,0,1,4.13-1.43h2.33A5.58,5.58,0,0,1,30.52,73.72ZM24.06,76a1.89,1.89,0,0,0-1.37.46,1.85,1.85,0,0,0-.48,1.39V88.51h6V77.85a1.88,1.88,0,0,0-.46-1.37A1.85,1.85,0,0,0,26.39,76Z"/><path d="M48.81,73.76a5.57,5.57,0,0,1,1.42,4.12v2.3a8,8,0,0,1-.37,2.44q2.6,1.3,2.59,5v8.81a5.67,5.67,0,0,1-1.4,4.13A5.59,5.59,0,0,1,46.9,102H38.05a1.14,1.14,0,0,1-1.14-1.15V99.39a1.1,1.1,0,0,1,.33-.83,1.13,1.13,0,0,1,.81-.32h.34V76h-.34a1.13,1.13,0,0,1-1.14-1.15v-1.4a1.08,1.08,0,0,1,.33-.83,1.13,1.13,0,0,1,.81-.32h6.63A5.6,5.6,0,0,1,48.81,73.76Zm-6.76,11.9V98.17h4.81a1.88,1.88,0,0,0,1.37-.46,1.85,1.85,0,0,0,.49-1.39V87.51a1.9,1.9,0,0,0-.47-1.37,1.85,1.85,0,0,0-1.39-.48Zm0-9.63v6h2.59a1.85,1.85,0,0,0,1.39-.48,1.89,1.89,0,0,0,.46-1.37v-2.3A1.64,1.64,0,0,0,44.68,76Z"/><path d="M68.17,73.76a5.57,5.57,0,0,1,1.42,4.12V96.39A5,5,0,0,1,64,102H61.71a5,5,0,0,1-5.55-5.56V77.88a5,5,0,0,1,5.55-5.55H64A5.6,5.6,0,0,1,68.17,73.76ZM61.71,76a1.9,1.9,0,0,0-1.37.47,1.82,1.82,0,0,0-.48,1.38V96.39a1.89,1.89,0,0,0,.46,1.37,1.85,1.85,0,0,0,1.39.48H64a1.89,1.89,0,0,0,1.37-.46,1.85,1.85,0,0,0,.48-1.39V77.88a1.89,1.89,0,0,0-.46-1.37A1.85,1.85,0,0,0,64,76Z"/><path d="M89.27,72.65a1.11,1.11,0,0,1,.31.83v1.4a1.13,1.13,0,0,1-.31.82,1.1,1.1,0,0,1-.83.33H88.1V98.24h.34a1.08,1.08,0,0,1,1.14,1.15v1.41a1.12,1.12,0,0,1-.31.81,1.11,1.11,0,0,1-.83.34H83.25a1.14,1.14,0,0,1-1.14-1.15V99.39a1.1,1.1,0,0,1,.33-.83,1.13,1.13,0,0,1,.81-.32h.34L78.37,84.4V98.24h.33a1.1,1.1,0,0,1,1.15,1.15v1.41a1.13,1.13,0,0,1-.32.81,1.11,1.11,0,0,1-.83.34H74.33a1.11,1.11,0,0,1-.81-.34,1.07,1.07,0,0,1-.34-.81V99.39a1.07,1.07,0,0,1,.34-.83,1.13,1.13,0,0,1,.81-.32h.33V76h-.33a1.1,1.1,0,0,1-.81-.33,1.08,1.08,0,0,1-.34-.82v-1.4a1.06,1.06,0,0,1,.34-.83,1.13,1.13,0,0,1,.81-.32h5.22a1.1,1.1,0,0,1,1.15,1.15v1.4a1.14,1.14,0,0,1-.32.82,1.08,1.08,0,0,1-.83.33h-.33L84.4,89.88V76h-.33a1.12,1.12,0,0,1-.82-.33,1.11,1.11,0,0,1-.33-.82v-1.4a1.08,1.08,0,0,1,.33-.83,1.16,1.16,0,0,1,.82-.32h4.37A1.13,1.13,0,0,1,89.27,72.65Z"/><path class="cls-1" d="M112.59,73.76A5.57,5.57,0,0,1,114,77.88V96.39a5,5,0,0,1-5.55,5.56h-2.33a5,5,0,0,1-5.55-5.56V77.88a5,5,0,0,1,5.55-5.55h2.33A5.6,5.6,0,0,1,112.59,73.76ZM106.13,76a1.9,1.9,0,0,0-1.37.47,1.82,1.82,0,0,0-.48,1.38V96.39a1.89,1.89,0,0,0,.46,1.37,1.85,1.85,0,0,0,1.39.48h2.33a1.89,1.89,0,0,0,1.37-.46,1.85,1.85,0,0,0,.48-1.39V77.88a1.89,1.89,0,0,0-.46-1.37,1.85,1.85,0,0,0-1.39-.48Z"/><path class="cls-1" d="M124,72.65a1.11,1.11,0,0,1,.32.83v1.4a1.14,1.14,0,0,1-.32.82,1.1,1.1,0,0,1-.83.33h-.34V98.24h.34a1.1,1.1,0,0,1,1.15,1.15v1.41a1.13,1.13,0,0,1-.32.81,1.11,1.11,0,0,1-.83.34h-4.37a1.11,1.11,0,0,1-.81-.34,1.07,1.07,0,0,1-.34-.81V99.39a1.07,1.07,0,0,1,.34-.83,1.13,1.13,0,0,1,.81-.32h.33V76h-.33a1.1,1.1,0,0,1-.81-.33,1.08,1.08,0,0,1-.34-.82v-1.4a1.06,1.06,0,0,1,.34-.83,1.13,1.13,0,0,1,.81-.32h4.37A1.13,1.13,0,0,1,124,72.65Z"/><path class="cls-1" d="M134.17,72.65a1.11,1.11,0,0,1,.31.83v1.4a1.13,1.13,0,0,1-.31.82,1.1,1.1,0,0,1-.83.33H133V98.24h6V94.76a1.1,1.1,0,0,1,.33-.83,1.16,1.16,0,0,1,.82-.31h1.41a1.07,1.07,0,0,1,1.14,1.14v6a1.12,1.12,0,0,1-.31.81,1.11,1.11,0,0,1-.83.34H129a1.15,1.15,0,0,1-.82-.34,1.1,1.1,0,0,1-.33-.81V99.39a1.1,1.1,0,0,1,.33-.83,1.17,1.17,0,0,1,.82-.32h.33V76H129a1.14,1.14,0,0,1-.82-.33,1.11,1.11,0,0,1-.33-.82v-1.4a1.08,1.08,0,0,1,.33-.83,1.17,1.17,0,0,1,.82-.32h4.37A1.13,1.13,0,0,1,134.17,72.65Z"/><path d="M44.63,107.11a1.72,1.72,0,0,1,.5,1.33v1h-1.3v-1c0-.32-.22-.48-.65-.48h-.82a.66.66,0,0,0-.48.16.65.65,0,0,0-.17.48v6.5a.59.59,0,0,0,.65.65h.82a.65.65,0,0,0,.48-.17.67.67,0,0,0,.17-.48v-1h1.3v1a1.75,1.75,0,0,1-2,1.94h-.82a1.75,1.75,0,0,1-1.94-1.94v-6.5a1.75,1.75,0,0,1,1.94-1.94h.82A2.1,2.1,0,0,1,44.63,107.11Z"/><path d="M53.24,107.16a2,2,0,0,1,.5,1.44v6.5a1.75,1.75,0,0,1-2,1.94H51A1.75,1.75,0,0,1,49,115.1v-6.5A1.75,1.75,0,0,1,51,106.66h.82A2,2,0,0,1,53.24,107.16ZM51,108a.58.58,0,0,0-.65.64v6.5a.71.71,0,0,0,.16.48.68.68,0,0,0,.49.17h.82a.65.65,0,0,0,.48-.17.64.64,0,0,0,.17-.48v-6.5a.73.73,0,0,0-.16-.48.66.66,0,0,0-.49-.16Z"/><path d="M64.48,108H64v7.79h.52V117H62.14v-1.29h.52v-5.69l-1,2.08H60.45l-1-2.08v5.69h.52V117H57.59v-1.29h.52V108h-.52v-1.3h2.74V108h-.52L61,110.4,62.26,108h-.52v-1.3h2.74Z"/><path d="M73.05,107.15a2,2,0,0,1,.49,1.45v3.09a2,2,0,0,1-.49,1.45,2,2,0,0,1-1.46.5H70.12v2.11h.52V117H68.31v-1.29h.52V108h-.52v-1.3h3.28A2,2,0,0,1,73.05,107.15Zm-2.93.81v4.38h1.47a.65.65,0,0,0,.48-.16.66.66,0,0,0,.17-.49V108.6a.68.68,0,0,0-.16-.48.66.66,0,0,0-.49-.16Z"/><path d="M82.13,107.14a2,2,0,0,1,.5,1.45v7.14h.52V117H80.81v-1.3h.52v-2.1H79.21v2.1h.52V117H77.4v-1.3h.52v-7.14a1.75,1.75,0,0,1,1.94-2h.82A2,2,0,0,1,82.13,107.14Zm-2.27.8a.69.69,0,0,0-.48.16.68.68,0,0,0-.17.49v3.74h2.12v-3.74a.65.65,0,0,0-.16-.48.66.66,0,0,0-.49-.17Z"/><path d="M92.72,108H92.2v7.79h.52V117H90.09v-1.29h.52l-1.83-4.86v4.86h.52V117H87v-1.29h.51V108H87v-1.3H89.6V108h-.52l1.82,4.85V108h-.52v-1.3h2.34Z"/><path d="M102.29,108h-.52v7.14a1.75,1.75,0,0,1-2,1.94H99a1.75,1.75,0,0,1-2-1.94v-1h1.3v1a.67.67,0,0,0,.17.48.64.64,0,0,0,.48.17h.82a.65.65,0,0,0,.48-.17.64.64,0,0,0,.17-.48v-2.6H99a1.75,1.75,0,0,1-2-2V108h-.52v-1.3h2.34V108h-.52v2.59a.65.65,0,0,0,.17.48.6.6,0,0,0,.48.17h1.47V108H100v-1.3h2.34Z"/><path class="cls-1" d="M95.66,37.3a31.55,31.55,0,0,1-.75,7.14,21,21,0,0,1-2.17,5.71c-.4.66-.81,1.3-1.25,1.92a24.63,24.63,0,0,1-3.31,3.78,23.24,23.24,0,0,1-4.4,3.22A25,25,0,0,1,71.3,62.15a26.12,26.12,0,0,1-9.57-1.72,23.16,23.16,0,0,1-7.83-5.07,22.55,22.55,0,0,1-5.12-7.67,24.74,24.74,0,0,1-1.73-9.36,25.57,25.57,0,0,1,.77-6.4,4.21,4.21,0,0,1,.12-.48c.24-.87.7-1.66.86-2.54C49.49,25,66.29,4.21,71.3.24c.09-.07.14-.21.28-.24s.16.1.22.17l.06.07c6.45,7,19.83,24.73,20.72,26.27l-.22.08L78,31.91a7.88,7.88,0,0,0-2.75-2.83,7.29,7.29,0,0,0-3.7-.93,7,7,0,0,0-5.78,2.76,7.86,7.86,0,0,0-.68,1,12.55,12.55,0,0,0-1.48,6.4c0,3.2.73,5.69,2.17,7.46A7.49,7.49,0,0,0,72,48.44a6.75,6.75,0,0,0,3.84-1,4,4,0,0,0,1.75-2.76h-7.1V34H95.53c0,.94.08,1.63.1,2.09S95.66,37,95.66,37.3Z"/></g></g></svg>