
<svg width="83px" height="98px" viewBox="0 0 83 98" version="1.1" xmlns="http://www.w3.org/2000/svg" xmlns:xlink="http://www.w3.org/1999/xlink">
    <!-- Generator: Sketch 46.1 (44463) - http://www.bohemiancoding.com/sketch -->
    <desc>Created with Sketch.</desc>
    <defs>
        <path d="M31.3120472,78.8900929 C52.1867453,58.7001732 62.6240944,42.8408246 62.6240944,31.3120472 C62.6240944,14.018881 48.6052134,0 31.3120472,0 C14.018881,0 0,14.018881 0,31.3120472 C0,42.8408246 10.4373491,58.7001732 31.3120472,78.8900929 Z" id="path-1"></path>
        <filter x="-24.0%" y="-19.0%" width="147.9%" height="138.0%" filterUnits="objectBoundingBox" id="filter-2">
            <feOffset dx="0" dy="0" in="SourceAlpha" result="shadowOffsetOuter1"></feOffset>
            <feGaussianBlur stdDeviation="5" in="shadowOffsetOuter1" result="shadowBlurOuter1"></feGaussianBlur>
            <feColorMatrix values="0 0 0 0 0.596991922   0 0 0 0 0.596991922   0 0 0 0 0.596991922  0 0 0 0.298969656 0" type="matrix" in="shadowBlurOuter1"></feColorMatrix>
        </filter>
    </defs>
    <g id="06_Fichas" stroke="none" stroke-width="1" fill="none" fill-rule="evenodd">
        <g id="1500_06_Fichas_01ServicioEESS_Taller" transform="translate(-342.000000, -3603.000000)">
            <g id="Group-21-Copy" transform="translate(352.000000, 3613.000000)">
                <g id="Oval-3">
                    <g>
                        <use fill="black" fill-opacity="1" filter="url(#filter-2)" xlink:href="#path-1"></use>
                        <use fill="#FFFFFF" fill-rule="evenodd" xlink:href="#path-1"></use>
                    </g>
                    <path d="M21.2233214,48.5733988 L21.2233214,46.9999733 L32.4452552,46.9999733 L32.4452552,48.5733988 L21.2233214,48.5733988 Z M21.2061098,30.0870987 L21.2061098,21.1947065 L32.4624667,21.1947065 L32.4624667,30.0870987 L21.2061098,30.0870987 Z M22.8174043,28.4919207 L30.8511722,28.4919207 L30.8511722,22.7898844 L22.8174043,22.7898844 L22.8174043,28.4919207 Z M44.0018987,32.0966604 L44.0018987,34.316133 L43.631301,34.316133 L43.631301,45.5973042 C43.631301,47.1246872 42.3759561,48.3674758 40.8331416,48.3674758 C39.2899609,48.3674758 38.0342498,47.1246872 38.0342498,45.5973042 L38.0448697,31.2617297 C38.0448697,30.6142325 37.5124101,30.0870987 36.8576387,30.0870987 L35.6689428,30.0870987 L35.6689428,48.4156937 L34.0576483,48.4156937 L34.0576483,19.595178 L19.6112945,19.595178 L19.6112945,48.4156937 L18,48.4156937 L18,18 L35.6689428,18 L35.6689428,28.4915581 L36.8576387,28.4915581 C38.4008193,28.4915581 39.6565304,29.7347093 39.6565304,31.2620923 L39.6455443,45.5976668 C39.6455443,46.245164 40.1783701,46.7722978 40.8331416,46.7722978 C41.4875469,46.7722978 42.0200065,46.245164 42.0200065,45.5973042 L42.0200065,34.316133 L41.5776329,34.316133 L41.5776329,32.0966604 L41.7365651,32.0966604 L41.9907102,29.2895097 L43.5734409,29.2895097 L43.827586,32.0966604 L44.0018987,32.0966604 Z" id="Combined-Shape" fill="#D52B1E" fill-rule="evenodd"></path>
                </g>
            </g>
        </g>
    </g>
</svg>